<mxfile host="Electron" modified="2024-05-20T07:17:12.475Z" agent="Mozilla/5.0 (Windows NT 10.0; Win64; x64) AppleWebKit/537.36 (KHTML, like Gecko) draw.io/24.4.0 Chrome/120.0.6099.109 Electron/28.1.0 Safari/537.36" etag="LjRS95CqgdL6sfADnk8p" version="24.4.0" type="device">
  <diagram name="第1頁" id="sZe_wZlmAbS9ake1YgAu">
    <mxGraphModel dx="989" dy="582" grid="0" gridSize="10" guides="1" tooltips="1" connect="1" arrows="1" fold="1" page="1" pageScale="1" pageWidth="827" pageHeight="1169" math="0" shadow="0">
      <root>
        <mxCell id="0" />
        <mxCell id="1" parent="0" />
        <mxCell id="1MrnN2OK7CgLg50W9nsM-1" value="題目: 給定一個graph，請複製一樣的graph，回傳。&lt;div&gt;Input: 會給graph的node&lt;/div&gt;&lt;div&gt;Output: node&lt;/div&gt;" style="rounded=1;whiteSpace=wrap;html=1;" vertex="1" parent="1">
          <mxGeometry x="50" y="43" width="746" height="60" as="geometry" />
        </mxCell>
        <mxCell id="1MrnN2OK7CgLg50W9nsM-2" value="Graph Traversal&amp;nbsp;" style="rounded=1;whiteSpace=wrap;html=1;" vertex="1" parent="1">
          <mxGeometry x="210.5" y="129" width="139" height="60" as="geometry" />
        </mxCell>
        <mxCell id="1MrnN2OK7CgLg50W9nsM-3" value="DFS" style="rounded=1;whiteSpace=wrap;html=1;" vertex="1" parent="1">
          <mxGeometry x="354" y="129" width="139" height="60" as="geometry" />
        </mxCell>
        <mxCell id="1MrnN2OK7CgLg50W9nsM-4" value="Recursive" style="rounded=1;whiteSpace=wrap;html=1;" vertex="1" parent="1">
          <mxGeometry x="496.5" y="131" width="139" height="56" as="geometry" />
        </mxCell>
        <mxCell id="1MrnN2OK7CgLg50W9nsM-7" value="設Mark:" style="rounded=1;whiteSpace=wrap;html=1;" vertex="1" parent="1">
          <mxGeometry x="333" y="206" width="180" height="60" as="geometry" />
        </mxCell>
        <mxCell id="1MrnN2OK7CgLg50W9nsM-9" value="用Hash table紀錄有走過的node，當有走過，就把那個新創建的node(記載hashtable中)回傳回去" style="rounded=1;whiteSpace=wrap;html=1;" vertex="1" parent="1">
          <mxGeometry x="27" y="354" width="335" height="60" as="geometry" />
        </mxCell>
        <mxCell id="1MrnN2OK7CgLg50W9nsM-10" value="Hash Table" style="rounded=1;whiteSpace=wrap;html=1;" vertex="1" parent="1">
          <mxGeometry x="119" y="279" width="120" height="60" as="geometry" />
        </mxCell>
        <mxCell id="1MrnN2OK7CgLg50W9nsM-14" value="Python" style="rounded=1;whiteSpace=wrap;html=1;" vertex="1" parent="1">
          <mxGeometry x="32" y="430" width="120" height="60" as="geometry" />
        </mxCell>
        <mxCell id="1MrnN2OK7CgLg50W9nsM-15" value="" style="shape=image;verticalLabelPosition=bottom;labelBackgroundColor=default;verticalAlign=top;aspect=fixed;imageAspect=0;image=data:image/png,iVBORw0KGgoAAAANSUhEUgAAAYAAAAEYCAYAAABV8iGRAAAAAXNSR0IArs4c6QAAAARnQU1BAACxjwv8YQUAAAAJcEhZcwAADsMAAA7DAcdvqGQAADdgSURBVHhe7Z0PdBRVmvYfBAEVo6BBkTAoMVGCgqACCTMS/BNwBWHHRT1uw8wOeHYhOp/Es2v0KAFmjxN2z5D5dMDdBb7ZgZajssyAwSNkcABnQ0AlUcCgYFCGOFEiRoOiOOB89dyum1Q33UnnD51IPb9zKt1ddavqVnXV87z3vbdTXf7qAIdjx47xRQghhE84y30VQgjhM2QAQgjhU2QAQgjhU2QAQgjhU2QAQgjhUzp0FFB1dTV++9vfmonvU1JSzPxRo0bhhz/8oXkVQghxeugQA6DY5+fnY/v27eazFX6+2nmEn4PBYMNyIYQQ7UfCU0A7duxAdna2EfrRo0fj2WefxZYtW8xEsX/vvffMey6jUQQCAbPOmUcVgv+YhevvnI8t9e4sIYRIIAk1AAr63//935v3P/3pT43g2zTPmjVr8NRTT5n3NvJnGa7zyCOPmNfmKcH8tDSkRUzXj7sbub8oRtVxt5gQQojEpoAYzTPyZ9Qfmd9nq4Aw+vdCY6ABsEVAU2gaGkAugtflIDC0rzvvOA5XbEHJ7lokDZ6NX/1uDjK7uosSQH3pcsz79WpccPcGFOS4M4UQohOQsBYA0zg27dOSzt277rrLrMN1404FZUxGwRMF7vQkFv92M9Y9nAnsXYL/92w8LYn2o3bvVhRvrXI/CSFE5yFhBsCRPqSwsNC8tgS7jt1Gy+mBjPsDGO+821JVGZolhBA+J6EtANKaET12nTZ1BnelDUTi9hkUlLifvURbVoXl05x505aj6mQ1Sn6Ri8lZoX6GrPH3Y/7LntbFvuWY7syfsLDMfAzmhsqlpc13tkzcbTV8Jp7tH6/E6senY9xIlsnC5H8OotL0YdSjYsVjmD7uerO968dND9+vl9oyBB+/HxPcOrIvJG9ZGWpPusuFEL4mYQbATlymcpojVmdvPOs2SfVhcMsp550f+twm6rFlQS4W7+uLOx9ehCcfmYorj25B8KczUVjqFrk0Gz8pWoSCezLMx+x/WoRFzudFRXciNKcpqhH8x1wUYyxmzy3A7JuTUb12PqY9vhplyx7AzGdrMfz+eVg0fzZGdHdE3rtfS51jYIHpKCo9jhE/edLZbwFm3NAT2xdOx7QFJc4RCCH8TkJHATUFf/hF8WdHsR0N5IXL4hsJFIWTtShZGsSW3pkITMl0Z7aB7UuwGrlY+Z+OqN41CVNnPokVS2ZjuBPBr15bHBLXpFRkT5yEzMsvMKukXDsJk5zPkyYOR7NtoO1BVI1ejBX/OgNTJwYw5z9XYt6UJNSvdSL//7oY855bijn3Odu6bw6WLnT3W+JtqTgG8vijCPadg5UbVuDJmVOd/QYw+99XYNnDmaha9XMsiTQMIYTvSJgBMIJvSsA55HPhwoXmPQ2AI3+8cN2400eV6zD/Z/PdKQ/Tb52A3N/3dQTwV5iR7pZpE5OQ+3AOktxPhuuykTnYaRtUHzItjbbhmMp93nZCEsaOGWveZdw3DZN6m7ch7H4PHHJswGX3i3jR8YPAtNnIiMh7ZUzJQY5Tw/Ld6gsRwu8kzAD69+9vRLypPD5H/Njx/xz+aQ3DrhP36KE3SxBcEXSnYhwaOAMrNq3AnLFhkt16brgSqadsKglJDPbfqG27AUTZftK5oZbEkKuGm9dG3P16qN39Niqcdkhjv4Nn+kGoz6Gipu02JYT4bpMwA2CKhzz99NPmNRaM8mkA/EWwjfjtOnYbzXLfYuzfvx/739mDDYVTkVRZhAdmL0dle3V+dusRpUO5HWli+z3i+A1D/bGjzt8MTH3C9jtEmSY13xMhhDizSZgBMHq34/kZ3ccLy7bm9wOGrj2QeteTWDQrEyhdgsJf+yPtETKJavRIsf0OUaYbWj4aSwhxZpHQTmCO52dUz4g+WkdvJPZXwOTBBx80r60h9R8KMHsMUPZfhVi+151pOB89BjovB6Pk7fd5cuptIJ6Ivb1JSc9ACupRvqvCnSOEEKeSUAOg+Nt/50AD4L9/iNYnwNw/RwNR/LlOtH8d0TJSMeORGcisK8OShcs9wj4EQ5hSL92KF8OMoR4lK4IIjeBvGyn9U83r58cSOPBy9FiMHwRUriqKMDwHjoj69ep26KgWQnzXSagBEGsCdlQQ/zkcjYATRf/KK69s+G+htmzbxN9l8GzMyR2O+tIlmP9rawFJGHt7wLGHMhTNmI7Hlq1G8ZrleGzaBCzqmo12+dc9GanIdl6Kn3kUS9YUI/izJQj/b0enga6ZmP1wABnOcRX+aDLu/9lyrF7v7HuxOyLqD/XQ/8UTQiTcAIgVdv7jN4784WeagRV9dgLbfxPNz+3F8AfnYMagepQ9swhBNwROurkAy54KIPv897B64WPI+8Vq1KbPw7K5mbD/Tq5NpARQ4Gw/85vtKMrPw5KKaL9Ibn+ScgrwwnOLEBgKvFdciMfm5KHof6rQY8wcrFg0wzE9IYTf6dAnggkhhOg4OqQFIIQQouORAQghhE+RAQghhE+RAQghhE+RAQghhE+RAQghhE+RAQghhE+RAQghhE+RAQghhE+RAQghhE+RAQghhE+RAQghhE+RAQghhE+RAQghhE+RAQghhE+RAQghhE+RAQghhE+RAQghhE+RAQghhE+RAQghhE+RAQghhE+RAQghhE+RAQghhE+RAQghhE+RAQghhE+RAQghhE+RAQghhE+RAQghhE+RAQghhE+RAQghhE/p8lcHvjl27JiZcdo5XouK9aux8uWNqKysRFUtZyYhZfAQZIydirxZk5B6rikZN/Xr8zBuTjHqzacAFu8vQI55L4QQIhYJN4CSgjTkrnI/RCM5G/nLl2LGYPdzc5ysQNG9d2PJm+5nGYAQQsRFx6SAkjOQc88M5BcuwqLCfMyYkomU3u6y2i0ofKgQZSfdz81Q/fwyBBvEXwghRLwkvAVQWVKMHmMnIbWHO8Oydwmm31mEMvMhBTP+ezPyx5gPsakrRt74PBTXuZ8NagEIIUQ8JLwFkJETRfzJ4ACmTnHfoxrHv3TfxqQeJb9YZMQ/KScH2e5cIYQQ8dGJRgEloUeDMaSgx3nu2xjUr52HR5+vdt5lYsYDk501hBBCtITEjwKKhTedM3AGlm7MR3bX0KJT2Lsc039UiDKn7PDcF/DCQ7WYn5aLoFnYghRQRRBzf7cP6X+7AFO6vYSVL+9AzRfO/O69MXTy/fi7a3sBn5Tjf9Zswq4PuQDoNXAMptwzHunOIi+1u1/C2t+/hUOffW0+dzs3Gem3B3DvMNu5IYQQnYuObwEcq0VlyRLk/Wiem8tPReBfZscW/5OVWL5wiRF/XDcbjz44PDS/DXxVGcRTLx1A8g13YHxWOnqfqMOu1Uuwbnc5gv+1Fgd6DsP4ieMxJrUXvjhYiuCKrTBVdakpeRpPr96B2u6DMCbnDtyRPQr9uteipiZkBkII0RnpkBZA1bLpmLAw1N3bSBJSxtyJvLn5mDQoWicBqUdJwd3IXVUF9M5E/m9WuMNFS9rUAoAj3FMe+jFG2Ki+ah3+7Tc7wZi/1w0/xr/cOSg035lTuvzfsPFgb4yZNQfj+3HeAawr/G/s7D4Ks/LugJllOIEv6k+gV1JP97MQQnQuOk8fQHIykrp9jkMVVaiNMQS0ctkDeJTi75hF5qyC+H8r0Aw9h97UKP4k9VpcZX6MNsCJ6K34k164fvAA57UOtR+F5jTwzVc4+q373tBN4i+E6NR0iAEk3/QTLCpa5EwFmDM9gEljU5FcW4XKrcUoyp+MybOXozLCBOpL5iPPaTXw176p9/0cv/qH1NCCduCy/l6RJ+egJ7X7wsswKELDe55zjvvOMggjr0t2mlC7EPxlEBvfqsHXYUYghBCdkw4xgKT0bEyaOMmZApj9RAEWLduAbduWYsYNSWZ57R8KMe8/Ks17w97leODxIEzsPyYfi+bmOG2A9qNbrLNwVjf3TdP0mzALD07MQO9j+1C65hk8uaAIwT/sMykkIYTorHSiFFA28h8OIMP9WLFxIyrc9yXPhUb8kPrSQky+Og1pad7J5v9JELl2/rTlxjROP92QPPJezHl8Lh68awzSk+qwb0sQT632mJgQQnQyOo8BkOFDMMR9i731MP8n7juFYwTDxiPw0CyM6gN8/XY5drlLhBCis9G5DGD323jbfYvBSUh236ZkBBCY3tSUg8bBoMORY+ePTm3XVFF0vsAXoX9D2shZvXHh+c5rt56OJQghROckscNAtxdjdZ8cTE2PMsyzrgJFc2ZiSWlITVP+YSk2PxbvP3ho2zBQ/hAsEPZzghps/OUzKMUYzHpovGdop8Mp65QjOHct/tw/A8OGXIELu3+BT97aiR2HvkBy1iw8OCFsbSGE6DQktgVQX47H7sjCuKm5eGxxEMXri1G8ZjkK/3k6xo2/u0H8MSiAR2d9V/67zxXIGNYPZx+pRGnJS3hp/Va8dfR8DJ34IGZJ/IUQnZjEtgBK5iMtt7G7NhpJg6di3tNPYtJAd0ZctLIFIIQQPiaxLYBbZmNd4RxMGpuBjBRPdj451TwNLH/xBmz7XUvFXwghRGvoPP8MTgghRELpXKOAhBBCJAwZgBBC+BQZgBBC+BQZgBBC+BQZgBBC+BQZgBBC+BQZgBBC+BQZgBBC+BQZgBBC+BQZgBBC+BQZgBBC+BQZgBBC+BQZgBBC+BQZgBBC+BQZgEgAfMTmXMyd60y/3Oh8EvFSvtI5ZyvL3U+dj85eP9E0iTUAPhEsLe2UaX6Ju/w7QHXJEuTNnIxxI0N1v37c3cj9RQmqT7oFLPuWY3rEcYam6Vi+zy3TBMcPFKMo927PfibjsTW17tJGmi1XV4Hl/zwZWdx31mTkLatA5DPs69fm4fqpRaiIPIZ2wX2+8kVTsGDBAiyIfMayH6nZiCLHDIMV7ufTRM2GopDpRkyne7/iu0MHtAAykf/SfuzfH5o2PJKJYO7pNAE+LrL9tl9ZuhwVh/ti+KQAAlMykfRlBUr+IxeT84vDhbW2Fof4yqedXZvhmS5GjyjPxPdS7xjl3ffmYUlJFTAwB1OnT8KI7rWorguX7ubLVSP4+EwUfjACj764AS88kIrKhTMxb71nO3UlKPxVJaY+NAfDu7rz2pOaXaj8FEi/ZoQ7Q0TFmEIRNrZ78ygdU2i8dvrbdOz73VwUbWjhjk5b/URH0uEpoNSZBcgfDQRLvxvNgLGPbMPmF5di0RMFKPj3Fdj8mzmOpTGKLsf2UJEQXx535Nfhtjys++06z7QIgaYeeVlXjHmPB1HpbHXOb519rV6MJ59YhKUbt2HptFS3kEM85Q5uRIlzWgP3F2DS4FQMvy8XU0fXo/j1xpqWLV2E8rH5mD3GnSFOP/3GY44jxoHh7udEMjyAKWnO5fPOLqXihPoAWkqPcyPC9/QrkcLX3kB3MyOczAEe0Y6DylUrUVwHZD/wJGZfG74vb8shrnLH+WcIUi43nxxSMWCQ+5a8WYSikhHIeyAbnic0izOcEdekA5/WygBEgp8JzD6A3Crkv7QCM5xrMARTNLmoemQDVswMF8uSgjTkrnI/OAQW70dBjvvBEFo36H4y3LcY++eHCkWub2hYXoXl0yag0BO2Z0apQ1Mcr6tEya/mYd6KKgx5ZKWzboa7xNn6sumYsLCshdusQNGdd2PJ3hwU/HExApe6s08hznLsh7gjiIxlm5E/ljNCx7wkfSl2PtYXS348De/dtRmLprRG/t3c/qfuR5I2BQumNaZ62EG4dr/7wSX9b6NHvsxXP7MtGVMWBBCWLKoIYu7vajFm1hyMt50HZp63I4VpDu965QjOXYvGEtGXw6lLxh63jg11j1w3dp2j1s2eF4zBLG9/hymLUD2YTnmmFMlmu1HOo0PvrFmYM6Ff6BzCqduttWYdx/PDljdF0+c0VBdw+0ci6moInYfarKnIeGd1O9Wv+WvG+93c8jHr37DFiPMs2oMObwGUFDgCPjofBWEiSaFyxPtAPja4fQX7FwdO6SuoWuZIv2MKtj9h/0v5yFyVi+nLqszynPmc7wik857mYcp4xX+QYwaedeOT6VDd2OF6zcjJyNt+AQJFL2CpR/y9lC2cEOr8zZqA+x8PouzUftxG6qtxaK/zOnAA+lYvR94PsxrX/ZmnoznecunZGDu6Gqt/XYSyA7WoXLMYq7enYurN2ahaUYhg0hzktUb8TT7Y07FrpilI3782bJTPiGnO/Flj2DgyIspybU57NIiu3e8Ck9JowNSNwjXLs3wf1s4NOtISTu3WIlRe427HI/7edZkzj8nwDMda6lD5ljeWrkEtBe7TSuzyzC7f41hKWka4EBv6YfxDzn7MeaLIhfYbJp48r88D93rqVLftmVZ35pq69Ek2gh9qDYTXldRs2OqYYDrGTri2feoX5zVjYT/Fc7i3oeyUtDqUPnPqdyjaRgcYQBkK7wgJKKfcVZnIf2JGuPiWBJ3IPGJ+TgEW3wcEVy53JDhE6swV4S2C9BkIOGXKDtkSsahCtRP5B8Z4VnbWDTehWCQhdXQAgelTkTM6Fcn7tmDJgjw8uqrSXR6i/jiQPcWWy0DKiSpseX4+pgfmY0vkMBzLR4fxiXmzBYtmO8fZL9t0NJt1V+Ri5oKSUEdzvOWcszdj0VLHAF/EA+OzMO1XnyDzqWXIHxiEMxsz/s9U1K/Iw+QsfhfXY9yPi7DFBlxNUL7JifROidxGIECR+LQUr5zGUSY1HzsO2icDQz36M2JaY4Rr6tZnDO71CNSIaY7QOHK2NaLjs+6iseGGVFOLWkfkMoZ5Nj7c+Q5jmtYIZETm0ysqsa9POtL71KH2I3eeI1uVTiuj9R3hTgvGG6EPvwVj+jgiuaflcshWwdr9jpDf427PbMsR103ebdVg1zvOhRDVsKLRfP1afM04Zb0mM+JWGtA+VGoEU7vS4aOA9r80FltpCAWNoX1JqRPZ3xfwpIlCpA7IBLZXNxhAiMaIPGQozqwDhyLKRJKKFHY858Y3JDOcZGTnFqDgiSexeOUGbNv0JCYlVaK4YB6W7HaLOAzPXYGl/27LrcPml5yWCPPvB4JYvb6pZoDDQecs/esGrFv8ZFhHc9WqdXixQVQc4imXnI05/70ZO51zvXOzY5i3J6H4/xbh6PR8TP2gELk/q0Tqw+uw7cV8DK9ZgocLVjsi2BRNiFm/ochopTDFS79Lkp2ItRTPRB177tZtbGQ6ox+SnXrV1YYbQO/k8FLol+x8uy2LNCPz6Yyue199CzIu8pwH11iSY6b0muEUIXaOx9k+jsSTx2frp3EIaCgl5E2l9MPQq5022v7KxmM2I7cck7g1TsNqtn4tv2ZOKWu+G6fV9nHzRyzip+M7gZ3Ie8XiALAq6IpxFQ4dcF5W5TaIup2YU/fCHH9a2gRsHbuhwVDYSmgeJzJeybKNrRGbNmoxA6diag67gSuwfUcT20jOQWAq5dmp97sxwhjbeTt4PO7M8aRmnM9jHcNy1kTVLucl3nJRqH+5EIs+CGDO/RnY/moQ1TkBPHpXBpIHT8WjP8pxlpdhe6wWCjFi1oE4EblJRzB1YETNI9Zu3Zg+sIIXmk7NsZPkSyIMgBHpgllO9Nooms2mWUwayEamFLpQC8IYgyuqNW9VOq2S8FZL4ogYBhrZH+DQb1hGWHTd7vXt6GtGxKRzjAK6PMVEriHckSrsrLWthLCpACZxUzI/lD5yWhMt6bj1EuojcCbHgEyu3tMKaQk9u8eXRz9+4mvzmnLe+eb1FAZmIINDRD+qR23UH2WloMd5zku85SI5WYYlvyxH9qwZGN7VMVqnBYGL+5rIiiQ774FPcNjbyojEjcTaGxPZx4s7jHJBg1i749Pdutn+hlOmsPRDLNycvFN+VpYji82OmQ+1LkwEa9I/rnAaY3CEryaUTul99VCnZCfFOZ9j02wUfhrqe5quGdF2OocBfFANb2xvUj2rypw4tqWUoCxy1E885BSYH6Q1mzo6uAXF2yNimYOrsXI98//DMXqUNaJ6VB+IKFdbgtW/Y4iV5GjDkNC8U8jE2NudbdS9iOCvPX0KezdiK0cr9c7GCBPhx1sunIqnHaG8MQ9zbqZhJaMvUxLHjjf8gK32k8POuo4BN+mnHsGLpM0/+qJgum9dTIdlTCjWzO/bfHsTdWsF/SbMCY2Zj6xUGG4K5UgtNpr0jxVO1oUdxLtQ+2lEv0InpKHFUvGK01pi52971vd0XjOiLXS8AXCoYm54zj91ZgABBJE7rbHD1+BE/Q2jgEyroQxbX20sYUYUue8bcfP9YT80K8H8sGi/Clu2OhY0aIBTugmOV2H1tAkYNzUXj/1sPh7jv2CY+hiKDyYhY/pMBK51yzlCtrEgC1nj70eeLXeHU7cDTm3u+znmTXRbDPVbMP/O65GWdT+Crs5l/iQPgUH1TotkGsb9OC+07o+KnCNNRs7DM5Dj/lo33nIN7F2ColUpyHs4xx3zn4SxYyYhae1izFtTidq9q/Hz35Qg9e9yTl03DEd073FTMGF5+HIEOQwwbUrrRvq4I2pKn/eMCKkInjKMtGZDMPzXqIy6G/LrTt3GUsjWnhK1l6+MI69fsxHBsPVCuetT+goiMCmUTytRecQr9CFjqHvHObfxpFPc/ofwEUUJxE1lbd3qBC7ROn/bVL/TdM2INtMBBhA+CijtjkKkcoimO3Y/RA4K9m9APgoxwZbjtDIFAVvM7TtoGGbpTGVjovUBpGLGNPYxuH0KVvjD+hjcIaFhdYhC6ngE/mk0BtRXYPWKIFaXVKPHVTmYXfQCXnjCCitJQurgbCR/U45iU84xqUuzMfWJFVg511suCr2dYw+uQP4Ux4oqi0PrDpyE/JXrsPge85OzEPGWM1Rh+cIgzn8oD5M4JtMlaco8LHsoFZW/mIysHy1B9dACLHq4MRkXE5OCcYfwNeTZ3eGTcaVZotE4IuQZu809GVGGYdai9Bm7T2eKHIfv9hFg2zONZZxpa/Itp4paFGrD1gsd06nj2SMwHZl1jjyGC33IGJz5F4WGXDbNCNyS5RiGu/8W/6uGNuPu36lv9Gi8jfU7LdeMaCuJ/SGYEKLTYn449k5GlB+FiTOVztEHIIToYMrxyrZO3lkt2h0ZgBDC88tfyb+fUApICB8T+n9B/Pl35P9LEn5ABiCEED5FKSAhhPApMgAhhPApMgAhhPApMgAhhPApMgAhhPApMgAhhPApMgAhhPApDQbQpUsX950QQgg/0GAAZ52lxoAQQvgJGYAQQviUBtXv2rXJp4AIIYQ4wwhrAXTr1s39JIQQ4kwnLO8jAxBCCP8QZgBsBXTv3t39JIQQ4kzmlJ5ftgLOPvts95MQQogzlVMMgNAA1BIQQogzm4YHwkTj22+/xYkTJ8wkhBDizKJJA7DQCE6ePGleOcWxihBCiE5OXAYghBDizCNqH4AQQogzHxmAEEL4FBmAEEL4FBmAEEL4FBmAEEL4FBmAEEL4FBmAEEL4FBmAEEL4FBmAEEL4FBmAEEL4FBmAEEL4FBmAEEL4FBmAEEL4FBmAEEL4FBmAEEL4FBmAEEL4FBmAEEL4FBmAEEL4FBmAEEL4FBmAEEL4FBmAEEL4FBmAEEL4FBmAEEL4FBmAEEL4FBmAEEL4FBmAEEL4FBmAEEL4FBmAEEL4FBmAEEL4FBmAEEL4FBmAEEL4FBmAEEL4FBmAEEL4FBmAEEL4FBmAEEL4FBmAEEL4FBmAEEL4FBmAEEL4FBmAEEL4FBmAEEL4FBmAEEL4lA41gLVr1+Ljjz8273//+9+biXAel33xxRfmsxBCiPanwwyAIk+Btwbw5ZdfmonYZfazEEKI9qfLXx3c9wnjwIED2LVrlxH5Xr164bzzzjOib99T+LnskksuQWpqKgYNGuSuKYQQor1IuAFQ/Ldt22bEvjlsCui2224zZtAcx44dw6uvvopPPvkEN954I6666ip3SWxYn9dffx0XXHABbrrpJpx77rnuEiGEOLNJmAHYlA4jf0b7gUDAXRIbrsO+AIr/0KFDTeugKePwGkD//v0xZswYdO/e3V16Kt988w1KS0vx4Ycf4uKLL5YBCCF8RcL6ADZt2mQ6eW2qx0KRZxTunWy/gC3Hz1yX24gHGsZnn32Gw4cPu3Oiw+X19fUm+hdCCL+RMANgBM/JK/4Ue0b4TAl5J2sUFq7DdTMzM905TdOjRw+zTnV1Nb799lt3bjicz+VJSUno06ePO1cIIfxD13kO7vvTSu/evU1kfujQIfzlL3/B1Vdfjbq6OvPZmgM7fCncFP9LL73UrMOUEV+zsrLCzCMa3O7Bgwdx/vnnm3X+9Kc/4aKLLoq6HqP/vXv3mg5mrvfVV19h4MCBOPvss90SwIkTJ7B//3689tpr2LFjh3nPFsOFF14YllqqrKw0xkUj+fOf/4yysjKzDo+DBmM7uTmP07vvvovjx4+btFPXrl3drTTy0Ucf4Y033sDOnTtRXl6O999/36S3uF9v/TjvlVdewaeffmqOl30ZrAePhfs5evSoSYVFQuMrKSkx+2YdhBD+JGEtAIqid9y/FxqDnaKJNfsOuC63ES8Uvm7dupn8fjQ4v2fPnkYAKZiRsIXw5ptvYs+ePaYM+xNoUDQOiizFNZL33nvPGBrNLSMjw6S3KMps6VDMKeDsnE5OTsbbb79ttu2F++S8rVu3GoMYMmSIMb6+ffuabf/xj3+Mul+u99Zbb5n90MzOOeccU2caQ7ShtDwGmlK/fv3cOUIIP5IwA6DgtBY7Gsi+xgPFlkJLw2HU7oWfbSuDrYVoUHAZzX//+9/HyJEjccUVV+C6667D6NGjjWGwNeCFwkzxZfkrr7wSI0aMwLBhw8x8mgBNgfPY4uD2LrvsMlMHr0Az8mfrgEbDkU9ch+WZ+uLEsjSOyLQWW1Kcd+edd5rO9WuuucaYxueff44jR464pUJwGzQAtozYOhFC+JeE9gFMmTLFRPmRUAgjO4C9cB2uS1GMl7POOsuI9tdff42amhp3bgimQJjeYcqnS5cu7txGODqILQQaRGR9meaheNJEWM7LgAEDwlJDjMJpMDQibyrGtjwY5dvWBwWcKSuOQkpPTzf198L1GbEzqo80Qh7L4MGDwwSdZfmZpuKF4k8ToAEJIfxNwgyAws58vjfita0CzrcdwFVVVWaet8XAdViGBtESKNQUWkbyVqyZN6e4U5TZSogG98dp3759CAaDYdNzzz2HDz74wBgLhddCoY9sTTAFRSHnsbBj2guXeaEZsLXAbUQbisrtsL6sf6QBUOgj981UGvsFvGkgmgy/B5oYWwhCCH+TMAPgyB6KuFe8GF0zqmee2ztF/vCL63BdTi2BIpuSkmJE0LYCKICM3jk/Msq2nDx50kxpaWkmpRNtYpol8jcG0VoTJNZ8L/w5BvfJbUaag4XGEGk8hDl/b+cw4bHxGCn+jPoJzyPPBU2xqd9HCCH8QcIMwKZwrLBbI+Bn5rm9U7QyXJfbaClM43CcP9MrFE+mf5qLgCnYnCiil19+edSJ4hpLqFsL98mWSqTAW9hKoAnEK942z0/TY/TPH8jRZKKNDBJC+I+EGQBTEhRy9gVQ2DmqJzK9EjmxDGGnqDWFlsLomLl5ih9TSIyAmftvSkQpslyPKRmKbiJgfZgq4j6Z5omEAs4OXdYrWoooGixLA2QnMTuEmQpj9B8r9SWE8BcJMwALRY5pHivo1hgsfG+HgvKVZdkqaAvsEGXHK8frUzwpik1B4aRQ1tbWNvRJeGErgqLanrA1QaOyfQ8UfC/st2Aai3VvyegdtnTYqmALiL+O5vqxUl9CCH+RcCWgqFPQ2RIgfM/0Dudz4nsr+Bz62FbxJxRMGgtTQBTAeCJoDuVkCmX37t3m/wtxWCiFmT+84o+zmEppb2gAHLlE02GfyTvvvGNaLdu3bzc/7GJ9+NuAlsB1mPJixzU7olvbkhJCnHl0WChoR/lYQeKr9z3NwDsSqK0w782oPt78N0fV8J/DcUgmo32KMM2Av57lOH5uq71hZM7fCowaNcrsx46OYtqKnc5sDbW085YtC5oeU0s0g3jTR0KIM58OeR6ASCz8cRnTX97UmxBCKBl8hsP8Pzt/mQbiJIQQFhnAGQ7Fnykk9i9E/lZACOFvlAI6A+EwUnYk83cFfGXkz/9hJAMQQnhRC+AMhZE/c//sAOZ/IJX4CyEiUQtACCF8iloAQgjhU2QAQgjhU2QAQgjhU2QAQgjhU2QAQgjhU2QAQgjhU2QAQgjhU2QAQgjhU2QAQgjhU2QAQgjhU2QAQgjhU2QAQgjhU2QAQgjhU2QAQgjhU2QAQgjhU2QAQgjhU2QAQgjhU2QAQgjhU2QAQgjhU2QAQgjhU2QAQgjhU2QAQgjhU2QAQgjhU2QAQgjhU2QAQgjhU7r81cF932EcPnwYe/bswdGjRzFmzBhcfPHF7pLmacu6Xo4dO4Z9+/bhz3/+s9kWueCCC3DFFVcgNTUV3bp1M/MiqaurQ1VVlakH1/vLX/6C8847D71790Z6ejr69euHLl26uKWFEKLz0GEGcOLECSO2+/fvR01NjZl3/vnnxyXibVk3GocOHUJ5eXmD8Edy6aWXYtSoUWYfXj755BOUlpbGXO/ss8/GlVdeieHDh+Oss9TYEkJ0LhJuAMePH8frr79uBPybb75x54ZoTsTbsm4sGLnv2LEDn3/+uflMsb/wwgvx7bff4qOPPkJ9fb2Z/73vfQ+jR49G9+7dzWdCA9i2bZuJ+Pv27WvqwPI0pdraWlOGJkADYGsgHg4ePGjW79GjBzIyMsxrU/A87N27F1999ZVpbQwcONBdArzzzjv47LPP3E8haEQ8Ph5Pz5493blCCD+S8LD05MmT+OKLL4xwURxTUlJOiaxj0ZZ1o8GWxLvvvtsg/kOHDsXNN9+MG264ASNHjsStt96KAQMGmGUU5Q8//NC8t1BAaQq33HILrr32Wlx++eVmG7fddluD4DMlRJPhvloCzY7ppeb49NNPjfjHwgp+nz59zEQD4zo0ja+//totJYTwIx2Sl6AIXX311cjJycGNN97YbJTrpS3rRsLomGJILrnkEpOu8aZqzj33XJP/p9BTyGkAXiHv1auXifwj4TYYYXN9QuNqSUOra9euxuDYwuC6seAylmH5WCkmLmM/Bg2J03XXXWdaCjQYriuE8C8JNwCKoo2y2VHakg7StqwbDXb82vx9UlJSg2B7YdRsWxksG2/UTOHlZN+3tK5MK3nrFw0uY5mWnguWZ52aMhchxJlPh7QAvkswEre5cqae4jUApoyseCcnJ8ccRRQLK9LcTrTWA+dxGevH0UotgabBPg6ajBDCv/jaACjKVtzZeUthjIT59S+//NK8txF3LCjK3M7OnTtNByxhKogpmJbCerFVwj4Pu38vnMdlzO+TeKJ5ij7TPuxEp8GwdSOE8C++NgBGzszjE/YFvP/++2HRtu0ktv0E0aAhbNiwAcFgEM8++yxefPFF08HKvokRI0YgKysrbORQvDClw5YD62NHFHnhPFumKdh3UVFRge3bt+O1114zv1mgaUT2dwgh/IevFYApEA6bZBrFCmVJSYkZaspp06ZNxgBaCrfHiebAKL210KDY/8DOanbaWpiG4gghr4HFInIUEPs5OCpp165dTY4eEkKc+fg+BLzqqqtMNEzBJoysKfqcmC7p37+/+W0AoRifc8455r2F0f0111yD73//+ybi57Yosmw1MA20efNmM7a/NdgIn30P3iGhrBdbJ81F/4T9CN5RQByuylFUNLwDBw6oI1gIH+N7A2CEbFM1/F2BFXhGyxxmynH+1hwoppGdufzM9fgbAP5wi+UnTpxoRipxW8zVV1ZWNvygrKUwyud2aEwUfQo3zYUm09rfQLBFwIktALUChPAvSgI7MNLmD76ys7Nx1113IRAI4G/+5m9M64ARsu34pehGGyoaCbfHaJvj7cmRI0daPeae5kMzYh2YCuKP1ija/MUzDam1sOXC/gV2DAsh/IkMoBkYedvonVFzvD88Y8vCOzyzLb+6ZaqHgs3cPSeOEGrrCB6mlWhU6ggWwr/o7m8CiuSf/vQnk3ZhhzH7A+KFkbU37WOHm7YGmg7Nh8NQuc2LLrqoVSOLLGxJcGJqKbJPQwjhH3xhAByJs2XLFqxZs6ZhfL6FIh/t//RwPkcF8T+FEnYEeztdaQpcxtdocEgpx9sTtgQo4G2B+2a0blNC8cIUFuvCf3XNaffu3eYccFtMe7UljSSE+G7jCwPgaJfq6mqTO3/vvffCRtTwP36uW7cOr776Kt58800jjhwz//LLL5t/N034/3440icyXcLtrl+/HmVlZWa7H3zwgRleuXHjRjOP+6Ng8/8JtTVlwxYIh3zG+pcVsWBLxP7PI06sE+syZMgQsy0hhH/p8AfCsHOT4stOUo5qacm/dI53XYoyJ8JInOX4S1jCFA+3EYvLLrvMjAaKHHHDyJ//Ctq2EKLBNA1HBnFSrl0I0dnwhSoNGjSoYYgnx+lb8SeMhinQtqOVMNpm+ZtuusmMDIo23JKR/bBhw8yYepqOXdemaNhi4EiiaC0HIYToDHSKR0IKIYRIPApNhRDCp8gAhBDCp8gAhBDCp8gAhBDCp8gAhBDCp8gAhBDCp8gAhBDCp8gAhBDCp8gAhBDCp8gAhBDCp8gAhBDCp8gAhBDCp8gAhBDCp8gAhBDCp+jfQYvTDh+5uXfvXnz55ZfmWQuDBw9Gt27d3KWiKewjTPncic5IZ6+faJqEGkCsp2/xwSvf+9733E/fLSorK1FeXm6er5uVlWUeCOOFj5yk+NXW1prnDPNhNNdff715xnAsPv74Y7NdrsOvhw+B50Nr+HQyy+HDh/Huu++ap6FZYWUdWM77yEg+Ne2tt94yTy7jw+XT09Nx1VVXhT2kho+2PHjwIDIzM9v08PpoWPHneZFIhOCD/fndXX755WHPmY5GWwSW32lNTY37qRE+orS5/caLDOC7TcJTQHy61oQJExAIBMw0YsQIYwo0h9MBBXDDhg2nZfuff/65eQ5wLCh8PDYKOZ8axqeR8Rm9NIJY8EHy//u//2vW6d+/vxF17ofPGOYNbaHwU0j69etntktBt88z/vrrr00Zii8fbM+H4vPJZhR+1sm7naNHj6Kqqsosa2/xJzz/rA9NTMSG3+XOnTvNa3tC4x0+fDhGjx5tJoo/v2/vNRAPp6t+omPp8D6AtLQ0I3KMlL9LUMgZxVFcI6N+wuOhIPMZxOPHj8fNN99sbsCJEyeax03G4sMPPzQPbudD2/nsYrYqeANTzHnT8lnEhJE8Hzlpb2xun1EdBZ11IjQOPgie4s4H2/PmpxDTXCx8mD0fYdlUi0S0L3wYP58z3V5ReEvgPnlNUsh5TQl/o07gVsKUCqN1Glhk5ExzYMvg5MmTJiVzwQUXuEuALl26NPmMYJuR69Wrl3klbDVF7oM5dG7LwvQOJ86z87ktlrMpIRoVn4tsoUnRIGgmem6xf2AQwFYor0/hb7rOc3Dfn3YYkVJ0mO+3onT8+HHTJGVkEhkRvfbaa9i8eTN27dplJkYuXjFleuGVV14xaQ9bhukGpk4I12c6heUYPXuXM5LmMk52XYplPFEZRZPNYZblsVRXVxuBZkuma9euJgpn64DHyNxotBZCLHhTMr/P+jFqp4gzbcOUD82G8yLhzbx//35jSqwDH4JPE+Bxcx7TT4w6uc3333/fPMCedX/zzTcxcODAVkX/jB7ffvttsz0ePye2PLgvC1tA3D+Poa6uzpShSbG/IhJ+P7wOKE7eDmK2VtgfQhPkunbe7t27G/bLPhPverym2O/BtF9Ty/m9sH5sBdm6R67bVJ2j1c2eF36H3Kc1Vpbl+eA8fi+83vg9cD2WZzDBwIHluE9eB7ze+b0TluU6rK93eVPwfuO+eM14zynncRnn89jZT+CtK7Hnga/cX3vUL55rxvvdcNs8ZyzHOnrPs2gfOtwAmKMm1113nRFPYsWZF8ztt99uUiC8mJhP56s1AYoexfwHP/gBhg4dajpJeUPyQqXAcRnz47xob7jhBlPOiv+2bdtMNMzt23V58fFGaAqKLTt9KWrszOW+eNF7DYBix4vc3gDcF82IIsfy3Ic3evfCY6NYsyzPDW8Y3iQ8B4zUvViDZBl2BLO1wcmeR95EFCLWh9vlTcy60pR4Q/FYWL6l0T/TB3v27DHnj98bU1o830xfHTlypEFMrPHQMGlKTEVFE1LSlFh99tlnZlu8+fldsnXFkURMaXHfNHXuh+uxbrwGWJ9rrrnGLOc81o31Yhlrsjyvl1xyiamXFX8eF9/bda3gRKs3t8X68Fjtd81ri+eWrzzndn2ed4okzZb74XniOhQ11oH153Hyu+Fx2e1RBDmf5+Haa6819w63SYPia6zzSWKdU9aF1x/n85X78NaV8HxxXdaF90Zb6xfvNWO/G26X58Z+DwyqqB32OxTtQ8Lb/fwi2SkbDAbNxJuF+W5vlMx5vKi883lhUQAprLy5CMWL8y28cdkpyhu7Kbg+8+zeyJfrRgpsJBRvRjm86SkavECjQWHlDcELmxc9c+w0B+6T6zOqiQW3zcicdeSNxjrRXNgK4I3rhdvlDUlTo1kycuL+WE/Cc8dOdlJSUmJaJcOGDTPbY1TFFgWj7nXr1uH555/H1q1bmz13hEbCY+e+LbzZuT2KMQ3ndMHzyvp7RzrRXKx4sW5cznNiueKKK8wrBcQLy1GELBRmwpFaFi73lvFiBc6bT+d7GjDPvd0eX2nQFK/WwG3xOrDCx/pxv7y+WgoDC96DbPlxe9wWzwPPm4XHwuPgPux5bYp46tfSa4YGwzpaaEK8rlkv0X4k3AB4EXhHAbGjs7S01ESzFt6oFHKKshfmxSmi1gAI31O4rKHs27fvlDKR8IJlJMIIm5FGvFC4OWSS0af34owFIxoOrWRH7tixYzFy5EgjDrajNxIaBwWcgjFq1CizLtdhJy/h/imAFrZu2LIZN26caclQqCjyvMktPN/c9z333GM6oGmYLMMbituisdBIuQ3eiDQoK2bRaErMKMoUk9YIU7xwH9w/UxeR2LrR2L1RIs85o+/Ic+7tDyFW7NiytOLdHDwP/N4YuRIeuxVVex7stuIR02hECjGPjdcwr/GmvivCMrzOmSblxOudLV5G9ITb4nueN1tPXhc8Jl4j8dBc/VpzzUSW5fZ5P3mvf9F2Em4AkVDkmd5g1M+LkxcNb1QKuRV1OzH14oWmwciVwmcNpbkonvDipCjSZGxrhGmDpuCFx2YtbwzWw9aJ6zOiYnTOurBOvFC5Dx6b18TY5KaJcVu8ISLhdjhRQLw3AD8zImKTni2jaPBGYlOZ54+tiFjwGHhDsnVBo2X9GCGzboykbXM+FlzXtjA6An7XNCyeJwoa+2KscNm6sVVjBY/TG2+8EfV8e1sRhCLDFhLNwopmU+eSWCFlZMr900Tt92dFldEttxm5v0TA69A7DJRpy0gjYn290XV717ejrxkRmw43AMILjRcc4QXLyIxCbkXdO7H1wPIUMpoGP1MQWgOja26TP0SjqHtbIZEwV8pIhTe2d6Iw2zrzM98zIuLkjQy9MCK1eXov7FfgFAtuq6kbKdo2vdBY2YKh0LMsxYrn3UbLFAYaCOsdCxuJtTctERuKLodRsvXD+rPVQvGydaO5WcHzTt70Qyx4LpjLZnkGCM2NmbetC0awrAM/81hYR76nCXA+P9vz3Nlg3dhS5DHY9E971vd0XTOi7XSKb8U2OS2Mktlx2NLmHstzvZbCtAhz5U2ljijw/DEVUy3eiUJBY2Akfeutt5poizcT8/Ns0Xhzq7bjkcu9wzwtNA2KByMwb+TJz4zMuQ4nCjdz+F6z4LFTqGhAsXLWTG1wfbYUrHB5TYWRGm/WyNSIF6/gRcI6sG40wtbAerAOXqLtx0KBYqBAceF6TdWtNTDNR4OPlq6zsA4US9vyssLJunBiXXiOGWV3Zvid0azYKuS92J6/Czmd14xoGx1uABRJNre9OX/+RJ68/vrrYYLMqJ8TsREjRdXC/HlkTt9G594OQF50jBot9uZlOZZvKxQA5ud50e/YscP0UfzhD38wLQzeDOz44n5oBps2bcL69evNzcH92xQW1+PoIf4CmH0kvEmYqqEgUSh5rC+//LLZJstt3LjR9C2w89PbAWrheeJwSHZeUzA5cfQJW1GMcrmcrQPOoxHFgsdGYWQKxtuZTQGmwdDcYhlQU1A4WSeamM1r8zuJTHnR+GyqgvA9zweNi3WjcHGdyKidxxZpLpFwW9y+heUpik0ZIqG4UzQ5WaG3xsBt8jporoXD+pPIztBEwboS3j+ROX3SlvqdrmtGtJ2EDwPlF84OPAowJ75nFO1N41AcecEwr05xs2V5o7McRZQ3FCfmae1yjhrihUoBsUMyOVFYmOJhGQop890UULsuh1FSOJgSaik0E9aTrQC7T8KbiPuhgFB4WY7iys5dzicUDAqOrS+PhwLP1oONxnjOeHMyN01TYSqK++C54DKWocgwsufxs4Mv0sRocBwhFGkOHPrHVoT99xCsF9e3xxALnmOaNQ2HhsxjYD14fKyjF97kNDceV3PGwmPgueJ2bQuH9aWgc3/cLwXIO46cx05TswLGffA968XvxZbjPBtlMiKn4fH4vXViXTnE1K5nj6m5Dn+eL9aL1xk7TvlK+EpB5bVhv3MS7Zzw+Pk90ZC5b9aRy21AY4MjC+fzGqBw2v1FEmsYaDTs/nmuec4jv6u21i/eaybWd2Pn23tEtA/6b6BCCAODABqq/lurf1DPjBDCtEoYtbOlJPH3DzIAIYRJx5D27PwVnR+lgITwMUz7MK/PfiP+2wXb2Sv8gQxACCF8ilJAQgjhU2QAQgjhU2QAQgjhU2QAQgjhU2QAQgjhU2QAQgjhU2QAQgjhU2QAQgjhU2QAQgjhU2QAQgjhS4D/D84Az9WnLmetAAAAAElFTkSuQmCC;" vertex="1" parent="1">
          <mxGeometry x="27" y="512" width="171.42" height="125" as="geometry" />
        </mxCell>
        <mxCell id="1MrnN2OK7CgLg50W9nsM-19" value="Reference:&lt;div&gt;&lt;span style=&quot;background-color: initial;&quot;&gt;用 Array&lt;/span&gt;&lt;/div&gt;" style="rounded=1;whiteSpace=wrap;html=1;" vertex="1" parent="1">
          <mxGeometry x="582" y="270" width="120" height="60" as="geometry" />
        </mxCell>
        <mxCell id="1MrnN2OK7CgLg50W9nsM-20" value="用List紀錄有走過的node&lt;div&gt;之後List的index會對應到新的node的index&lt;/div&gt;" style="rounded=1;whiteSpace=wrap;html=1;" vertex="1" parent="1">
          <mxGeometry x="512.5" y="354" width="259" height="60" as="geometry" />
        </mxCell>
        <mxCell id="1MrnN2OK7CgLg50W9nsM-21" value="" style="shape=image;verticalLabelPosition=bottom;labelBackgroundColor=default;verticalAlign=top;aspect=fixed;imageAspect=0;image=data:image/png,iVBORw0KGgoAAAANSUhEUgAAAWQAAAEjCAYAAAAFRnv0AAAAAXNSR0IArs4c6QAAAARnQU1BAACxjwv8YQUAAAAJcEhZcwAADsMAAA7DAcdvqGQAADkbSURBVHhe7Z0NdBXVvfYfvr+DfAQEoiCRCEEREJVAFbRtwCrCrRfb5Q20t+h7L0T7Cq77ii4lYO+yeO8q9G0L3nuVt7d46qrlalF0FVKtoIXgF8hXQCAIEo0QJBC+P333s8/sZM7hJDk550Qn+Pyyds7Mnr1n9syZefZ//vs/Z5ocO3bsSwghhPjaaep9CiGE+JqRIAshRECQIAshRECQIAshRECQIAshRECQIAshRECQIAshRECQIAshRECQIAshRECQIAshRECQIAshRECQIAshRECQIAshREBI2a+9lZaW4qWXXrKJ0xkZGTb/xhtvxPe//337KYQQomaSFmSK78yZM7F27Vo774SYny6PcD4UClUtF0IIEUlSLot33nkHo0ePtsI7fPhw/P73v8fKlSttovju3LnTTnMZhTsvL8/WufgoQeifRuC6O+dgZaWXJYQQ9SRhQabA/sM//IOd/ulPf2oF2LklXnzxRfzqV7+y084yZhnWefjhh+1n3RRiTr9+6BeVrrvlbuT/YhlKTnnFhBDiIiFhlwWtXVrGtIqj/cO0mgmtYz8UagoyLWaKdO1QkPMRGpyLvEHdvLxT2L9+JQo3lSNtwDT85k/TkdPMW/QVULl6EWb/dgk63r0cBblephBCpIiELGS6HZyboj6DdXfddZetw7pxuy6yx6Pg8QIvPYkFL72Jlx/KAbYuxP/7fTyWduoo37oKy1aVeHNCCJFaEhJkRlKQuXPn2s/64Oq4ddSfVsi+Lw9jzNTKkuJwlhBCXAQkbCGTRCImXJ2kBveaUZaj8XzOBYXevJ9Yy0qwaJLJm7QIJedKUfiLfIwfEfZTjxhzH+b82Wd9b1+EySZ/7FNFdjaUHy7Xr98cs2biratqnvjWf6oYSx6bjFtuYJkRGP8vIRRbH3gl1i9+FJNvuc6u77pbJkdu1095EUKP3YexXhvpS5/xbBHKz3nLhRCNnoQEmYNydD3URU2Dd/HUrZXS/eCaM9p1CM8nRSVWPpGPBdu74c6H5uHJhyfiyiMrEfrpvZi72ity6Wj8ZP48FPwg286O/ud5mGfm582/E+Gc2ihF6J/ysQyjMG1WAabdmo7SpXMw6bElKHr2ftz7+3IMuW825s2ZhqEtjej6t+uoMB1K3mTMX30KQ3/ypNluAaYMa421T03GpCcKzR4IIS4GEo6yqA0+CEIx5sCfi7bww2XxRVrE4Fw5Cp8JYWWnHORNyPEyk2DtQixBPp77TyNyd43DxHufxOKF0zDEWLhLli4Li11aJkbfMQ45fTraKhnXjMM4Mz/ujiGo8x5hbQglwxdg8b9OwcQ78jD9P5/D7AlpqFxqLOP/6orZf3gG0+8x67pnOp55yttuod+SN4L+2CMIdZuO55YvxpP3TjTbzcO0f1+MZx/KQcnzP8fCaAEXQjRKEhJkWri1CSpD3J566ik7TUFmZIUf1o3b3VH8Mub8bI6XZmDyd8Yi/y/djCD9BlOyvDJJMQ75D+UizZuzDB6NnAHGdi7day3x5DAif4/fjk7DqJGj7FT2PZMwrpOdDOO2u2uvkWWPTa/gFaPPeZOmITvKT5M9IRe5poXrNsmXLsTFQEKC3KtXLyuqtfmBGVHh4o8Z7uYE3NWJOzrjw0KEFoe8tAx7e0/B4tcXY/qoCAlNnGFXIvOCVaUhjcbw++XJC3KM9ae1DVvaA68aYj+r8bbro3zTFqw3dnq139qXbgr7rNeXJd9tCCG+fhISZLokyK9//Wv7WRO0ginIfGLPWcSujltHndyzADt27MCObZuxfO5EpBXPx/3TFqE4VYNZzVvFGCBMIbWsv1UcMdSVx4+Y/9mY+LjzW8dI4+r2ZAshgk9Cgkzr1sUT0/qNF5ZNJH7Z0qwVMu96EvOm5gCrF2Lub78Zt+lh0S5Fqwznt46RhtU/2kUIETwSHtRjPDGtXlq8sQbuonFP6ZEHHnjAfiZC5j8WYNpIoOi/5mLRVi/T0gGtepuPPTH8vtt9PtkkiMeiTTUZWdnIQCXWbVzv5QghLlYSFmSKsXv8mYLMx6Vj+ZTpO2a0BcWYdWI9al0/MjHl4SnIqSjCwqcW+YR2IAbSJbt6FV6JEOpKFC4OIRxBnBwZvTLt5+HjX2Gg2fBRGNMXKH5+flQHZGDEyW+XpGDgUQgRBBIWZOJE2UVd8MeGKMxMFOErr7yy6tfgXNnkxNhjwDRMzx+CytULMee3TpLTMOq2PCPXRZg/ZTIefXYJlr24CI9OGot5zUYjJT89kZ2J0eZj2dOPYOGLyxD62UJE/lpHA9AsB9MeykO22a+5PxqP+362CEteNdte4EWc/LUS+p0lIS4OkhJk4oSWPyTEyArOU5ydCHNQz/0sJ+dTxZAHpmNK30oUPT0PIc9ETLu1AM/+Kg+jO+zEkqcexYxfLEF51mw8OysH7ueJkiIjDwVm/Tmn12L+zBlYuD7WE4OpJy23AH/8wzzkDQJ2LpuLR6fPwPz/KUGrkdOxeN4U0wkJIS4GUvbGECGEEMmRtIUshBAiNUiQhRAiIEiQhRAiIEiQhRAiIEiQhRAiIEiQhRAiIEiQhRAiIEiQhRAiIEiQhRAiIEiQhRAiIEiQhRAiIEiQhRAiIEiQhRAiIEiQhRAiIEiQhRAiIEiQhRAiIEiQhRAiIEiQhRAiIEiQhRAiIEiQhRAiIEiQhRAiIEiQhRAiIEiQhRAiIEiQhRAiIEiQhRAiIEiQhRAiIEiQhRAiIEiQhRAiIEiQhRAiIEiQhRAiIDQ5duzYl950/TlVjvWvLsFzf16B4uJilJQzMw0ZAwYie9REzJg6Dpltbcm4qXx1Bm6ZvgyVdi4PC3YUINdOCyHExU1SglxY0A/5z3szsUgfjZmLnsGUAd58XZxbj/k/vBsLP/TmJchCiG8Qybss0rOR+4MpmDl3HubNnYkpE3KQ0clbVr4Scx+ci6Jz3nwdlL7wLEJVYiyEEN8skrKQiwuXodWocchs5WU4ti7E5Dvno8jOZGDKf7+JmSPtTM1ULMOMMTOwrMKbt8hCFkJ8c0jKQs7OjSHGZEAeJk7wplGKU8e8yRqpROEv5lkxTsvNxWgvVwghvkk0UJRFGlpVCXUGWrXzJmugculsPPJCqZnKwZT7x5saQgjxzSO5KIua8Lsfek/BMytmYnSz8KIL2LoIk380F0Wm7JD8P+KPD5ZjTr98hOzCergs1ocw60/bkfV3T2BC89fw3J/fQdlRk9+yEwaNvw9/f0174MA6/M+Lr2Pjp1wAtO89EhN+MAZZZpGf8k2vYelfNmDvoZN2vnnbdGTdlocfXuuc40IIkXpSayEfL0dx4ULM+NFszxecibz/M61mMT5XjEVPLbRijMHT8MgDQ8L5SXCiOIRfvbYL6cNux5gRWeh0tgIblyzEy5vWIfRfS7Gr9bUYc8cYjMxsj6N7ViO0eBVsUz3KCn+NXy95B+Ut+2Jk7u24ffSN6NGyHGVlYXEWQoiGImkLueTZyRj7VHj4rpo0ZIy8EzNmzcS4vrGczKQShQV3I//5EqBTDmb+brEXHleYlIUMI6QTHvwxhjqrt+Rl/NvvPgBt4vbDfoz/c2ffcL7JWb3o37BiTyeMnDodY3owbxdenvvf+KDljZg643bYLMtZHK08i/Zprb15IYRIPQ3jQ05PR1rzw9i7vgTlNYS8FT97Px6hGBvxzplaEH+sch20HnRztRiTzGtwlX045TJj8ToxJu1x3YDLzGcFyj8P51Rx+gSOnPemLc0lxkKIBidpQU6/+SeYN3+eSQWYPjkP40ZlIr28BMWrlmH+zPEYP20RiqNEubJwDmYYq5pP42Xe83P85h8zwwtSQM9eftElbdCaWnpJT/SN0tTWbdp4U46+uGFwOnB8I0K/DGHFhjKcjBBmIYRoOJIW5LSs0Rh3xziT8jDt8QLMe3Y51qx5BlOGpdnl5X+di9n/UWynLVsX4f7HQrC28ciZmDcr19jIqaN5TXvUtLk3UTs9xk7FA3dko9Px7Vj94tN48on5CP11u3V5CCFEQ9JALovRmPlQHrK92fUrVmC9N134h3BEBalcPRfj+/dDv37+5PzHJIR8lz9pkRXxhqc50m/4IaY/NgsP3DUSWWkV2L4yhF8t8XUqQgjRADSMIJMhAzHQm8TWStjfHWpUGGG+dgzyHpyKGzsDJ7esw0ZviRBCNAQNJ8ibtmCLN4kBaUj3JjOy85A3ubaUi+rgtyHIdfnDM1Pq2ojNURwN/8xcNU074ZIO5rN5ayPRQgjRcCQe9rZ2GZZ0zsXErBhhbRXrMX/6vVi4OqxuGf/4DN58NN4HopMLe+ODIXkR4cxlWPHLp7EaIzH1wTG+UDbDBXXWITRrKT7rlY1rB16BS1oexYENH+CdvUeRPmIqHhgbUVsIIVJK4hZy5To8evsI3DIxH48uCGHZq8uw7MVFmPsvk3HLmLurxBh98/DI1Mby6xRXIPvaHmjxRTFWF76G115dhQ1HOmDQHQ9gqsRYCNHAJG4hF85Bv/zq4bdYpA2YiNm/fhLjensZcZGghSyEEI2cxC3kb0/Dy3OnY9yobGRn+Ly76Zn2bSEzFyzHmj/VV4yFEOKbS8P8uJAQQoh603BRFkIIIeqFBFkIIQKCBFkIIQKCBFkIIQKCBFkIIQKCBFkIIQKCBFkIIQKCBFkIIQKCBFkIIQKCBFkIIQKCBFkIIQKCBFkIIQKCBFkIIQKCBFkIIQKCBFnUE74SaxZmzTLplyvMnIiXdc+ZY/bcOm8ueAS9fd8EEhdkvjEk4vX94TSn0FveCCgtXIgZ947HLTeE237dLXcj/xeFKD3nFXBsX4TJUfsZTpOxaLtXphZO7VqG+fl3+7YzHo++eOF7uOssV7Eei/5lPEZw2yPGY8az6xH9TtbKpTNw3cT5WB+9DynBez9hlwl44okn8ET0Owq/iZStwHzTOYXWe/MNRNny+eFOMCo19HbFV0uSFnIOZr62Azt2hNPyh3MQym9IUebrnVK3/uLVi7B+fzcMGZeHvAk5SDu2HoX/kY/xM5dFCl15Ofbyk29DuSbbl7qiVYx3vPqpNB3X3T+cgYWFJUDvXEycPA5DW5ajtCJSSusuV4rQY/di7u6heOSV5fjj/ZkofupezH7Vt56KQsz9TTEmPjgdQ5p5eamkbCOKDwJZVw/1MkRMrEjPx4qU3z5kYQI7Qpf+Lgvb/zQL85fXc0MN1j6RLCl1WWTeW4CZw4HQ6sZhJo96eA3efOUZzHu8AAX/vhhv/m666WJoZa7D2nCRMMdOGTk0fHcGXn7pZV+ah7zaXlFVsQyzHwuh2Kx1+ktmW0sW4MnH5+GZFWvwzKRMr5AhnnJ7VqDQHNa8+wowbkAmhtyTj4nDK7HsveqWFj0zD+tGzcS0kV6GaHh6jMF0I46Rbzr/ihiShwn9zOmzbaNcRxcJ32gfcqu2UeZt1pXI4GcnoKXNiCTnMp+IxkHx889hWQUw+v4nMe2ayG35Leu4yp3iv4HI6GPnDJm4rK83ST6cj/mFQzHj/tHwveFQXOQMvToLOFguQb5IaO59pogSlBqDLWfUhcJVWNAP+c97M4a8BTtQEPE6af/bpj3uWYAdc8KFIurn9wuXq1pegkWTxmKuz6zNeXg5Ft8bv4CeqihG4W+exQojZzn/ayJGe/mk5JMSb6o+rMeKFXTw5WJUrpX5Goi3HNmLcl555hrkPu/dBaRlma7jXDEW/iKEjPvfRK7pTOqP5xs+6M2SfhPwxKRq1wQHfJbuCE9XmNvkWX8yzfi72JYh/Z1Pr0k3t9d5iHBurA+ZeuUYOXU6xjjns83zO+J5W+6vtw6hWUtRXSL2cpi2ZG/22ljV9ui6Nbc5ZtvcccFITPX7y21ZhNvB2/+nVyPdrjfyOK5+epapa/r3EVMxfazP2+7VMX2w5YLlCWK/oy+i2moJH4fyERORvW1JitpX9znj/26+vY/nRNUao46zcKTUQi4sMII6fCYKIoSQYmnEdNdMLPd8zTsW5F3gay551kisEWnnj97x2kzkPJ+Pyc+GxTB3DvMXIM9MU8xtGb8Y9zXi7KsbnxSH28YBtKtvGI8Zazsib/4f8cy92d7ySIqeGhsezBsxFvc9FkLRheNy1VSWYu9W89n7MnQrXYQZ3x9RXfdnvoHDeMtljcao4aVY8tv5KNpVjuIXF2DJ2kxMvHU0ShbPRShtOmZMSMA2tv5E30CdTROQtWNpRBTF0Ekmf+pI3jxYUWO5pG/Tq0TQbfcJewtehW0bhWSqb/l2LJ0VMpd6JOWr5qP4am89PjH216XPtUaGZBupr0DxBr+tWYZyCs7BYmz0Za/bbCS+X3ZkZ2PpgTEPmu3Y40TRCW83Qsx4XF8AfuhrU8WapxMenLNt6ZxuBThsLUe2lZQtX2U6pSyMGntNatoX5znjoJ/7D/hhVdkJ/SpMZ3DhdyiSFuQizL09LGhM+c/nYObjUyLFsDBkLNeo/NwCLLgHCD23yEhimMx7F0dazFlTkGfKFO2tyzoNW+V5I32VTd3ITqEm0pA5PA95kycid3gm0revxMInZuCR54u95WEqTwGjJ7hy2cg4W4KVL8zB5Lw5WBkd5uD4fD8O2ImVmDfN7GeP0Xbg0NZdnI97nygMDxzGW84cvSnznjEd0iu4f8wITPrNAeT86lnM7B2CycaU/z0RlYtnYPwIfhfX4ZYfz8dKZ5DUwrrXjSV0gWUzFHm8aA+uxhsNOIpfts/0aJ2zMcinB0MnVVu/tm2dR+KHPsEYOslc+EZeVkUNZFV0GRXZQZSVo9yITva1vpUPMd9hjZ3IUGRH+2PXF2N75yxkda5A+edenpGRYmOFJz6waSx8vwU75NsY2dmI1ub6yxPvRJbuMML6A299dl1G7F73r6sMG7eZEyFmBxKLuttX73PGlPWL/tDvsEPYjuIGPLcaKymNstjx2iisokAXVJu+hauN5XtPHqZEGSeZl+UAa0urBDlMtcUaFniTtWtvVJloMpHBgcT8+ELQIknH6PwCFDz+JBY8txxrXn8S49KKsaxgNhZu8ooYhuQvxjP/7sq9jDdfM5Y6/be7Qljyam1msmGPOUr/uhwvL3gyYuCw5PmX8UrVRW6Ip1z6aEz/7zfxgTnWH7xpOrDb0rDs/87HkckzMXH3XOT/rBiZD72MNa/MxJCyhXioYIkRpdqoRVx6DEJ2gkIRLz26pxuLbjWejhn76rVtVPTtdw+km3ZVWN9NNZ3SI0uhR7r5dutniUX7Y2l9dur/bWR38R0HT+jTLw3P1psLhNHsj1k/vojHD8y7g+qQt7BbyH/r3wOD+pt7mB3F1ftsI2OMaH8nzg6kzvbV/5y5oKz9bsxdzb669/ibRmoH9YxlunhBHvB8yBPHsJ8Tz+dXiaxLY58qYoEq6CPu128sVo1aXiXwtKLrxliOz7FstbXu3Bz1pvdETMylH3c91r5TyzrSc5E3kXJp2v1RDd28G4wbMAZ35vpcCWZ+lOlATE2UbDQf8ZaLQeWf52Le7jxMvy8ba98KoTQ3D4/clY30ARPxyI9yzfIirK3JgidWXL5GjMVqb595q2tFxieeXtt4u+sEKJyi/JYe6d2jBJkW2xNTjXVXLWJ1ugWs28JZbhSesIVthdoTubINxcZqj7Tqvzqiwt6iffSGHtdmR1ifKW/v133OXOSkPsqiT4a17MJ4kQAcfHNWdEQqgHU0FM4JuzuMtV2fgTg/YR+zSaZDsL5en5VeH1q3jM8Pe+rsSfuZ0a6D/byA3tnIZkjc55Uoj/mQRgZatTMf8ZaL5lwRFv5yHUZPnYIhzUzHZyxsdO1mLQ+SbqaBA9jvt8Kj8SyVVGMt33jxwsaeqBJPLz7Wa5vzV1+QIm6Xa8Lz6ZryU0cYmaozZjdsfVsLz7orPCGzQm2EqCx8+9+p/yBTMqCY4zmqn7NSG6C9DXTOiDCpF+TdpfDbvtY18XyRsfPqSyGKfFEZcZNbYB9QqdPVsWcllq2N6uv3LMFzr9J/PATDb3QdQyVKd0WVKy/Ekj/RBEkz1+rAcN4F5GDUbWYdFa8g9FufT3rrCqxiNEin0RhqLeB4y0Wy/tdGuK6fgem3sgNJRzfeQh8/VfVAS/mB/aau6RBr7d98AhRN0g+BUMC8SQ87AFUjFE/6h52/tpa2JUCPsdPDMbvRjYrAu+U3t+crrLvCCRnbwgG/jSg3t/8RfukAUmXRr3/D3E1wMC+V7W3Ic0akVpD5iHF+pM8489485CGE/EnVA3gWYxVXRVlYq7oIq96qLmEjNrzpajx/ccSDJ4WYE2ENl2DlKtMl9L3MlK6FUyVYMmksbpmYj0d/NgeP8pHliY9i2Z40ZE++F3nXeOWMsKwoGIERY+7DDFfudtO2XaY19/wcs+/wLOrKlZhz53XoN+I+hDzdyfnJDOT1rTQW+yTc8uMZ4bo/mm/2NB25D01Brvc0Xbzlqti6EPOfz8CMh3K9mOM0jBo5DmlLF2D2i8Uo37oEP/9dITL/PvfCuhEYEfyB5zKI8OOuQ4hhT/0mJBZJ4UUsrH7BN+K+PlQVNucoWx6KfFqMVmmVf9a0bRSFZekFVu265+LwC5etQCiiXtj3eYGvOQp7y3+wGMVf+IU3LNQV28yxjef23/NfR0ZsfIV4rpdVq4whEWswL6n2NdA5IyxJCnJklEW/2+cikyFpXuxwmFwU7FiOmZiLsa4c03MZyHPFPN9zVViZSUUjY/mQMzFlEn3Unk/aCXGEj9oLgYtoQwwyxyDvn4fjssr1WLI4hCWFpWh1VS6mzf8j/vi4EzqShswBo5F+eh2W2XKm07h0NCY+vhjPzfKXi0Ens++hxZg5wXQNxcvCdXuPw8znXsaCH/hijuMtZynBoqdC6PDgDIzzxRynTZiNZx/MRPEvxmPEjxaidFAB5j1U7TyqEesy8EKWqvy0XrhYXG6BWFSPuD/t1rk5O0bYWbmNha3abnQcsOdjxpqnq8uYtCr92xeKTAzKI+qF9+nCeNoo7MBUhZGrSOENC7XJ7xIOMaudofj2CCPg3vbr/Whz0njbN+2Nba0m2b4GOWcEaXLs2LEvvWkhxEWCfThnW3aMh0REkEm9D1kI8TWzDm+sCfjgo4iJBFmIi4zqJ/Mkx40NuSyEuEgI/4YIH8+M/r0P0ViQIAshRECQy0IIIQKCBFkIIQKCBFkIIQKCBFkIIQKCBFkIIQKCBFkIIQKCBFkIIQKCBFkIIQKCBFkIIQKCBFkIIQKCBFkIIQKCBFkIIQKCBFkIIQKCBFkIIQKCBFkIIQKCBFkIIQKCBFkIIQKCBFkIIQJCky8N3rQQQoivEVnIQggRECTIQggRECTIQggRECTIQggRECTIQggRECTIQggRECTIQggRECTIQggRECTIQggRECTIQggRECTIQggRECTIQggRECTIQggRECTIQggRECTIQggRECTIQggRECTIQggRECTIQggRECTIQggRECTIQggRECTIQggRECTIQggRECTIQggRECTIQggRECTIQggRECTIQggRECTIQggRECTIQggRECTIQggRECTIQggRECTIQggRECTIQggRECTIQggRECTIQggRECTIQggRECTIQggRECTIQggRECTIQggRECTIQggRECTIQggRECTIQggREFImyEuXLsW+ffvs9F/+8hebCPO47OjRo3ZeCCFEbFIiyBRdCq4T5GPHjtlE3DI3L4QQIjZNvjR40wmxa9cubNy40Ypu+/bt0a5dOyvCbppCzGXdu3dHZmYm+vbt69UUQgjhJylBphivWbPGim9dOJfFd7/7XSvOdXH8+HG89dZbOHDgAK6//npcddVV3pKaYXvee+89dOzYETfffDPatm3rLRFCiOCTkCA7FwQtY1rDeXl53pKaYR36kinGgwYNstZzbULuF+RevXph5MiRaNmypbf0Qk6fPo3Vq1fj008/RdeuXSXIQohGR0I+5Ndff90O2jnXhIOiSyvVn5xf2ZXjPOtyHfFAAT906BD279/v5cSGyysrK611LIQQjZGEBJkWLpNfjCm+tIDpwvAnJ9wO1mHdnJwcL6d2WrVqZeuUlpbi/PnzXm4kzOfytLQ0dO7c2csVQojGRbPZBm86bjp16mQt17179+LMmTPo378/Kioq7LwTaw7gUUgpxpdeeqmtQxcHP0eMGBEh5rHgevfs2YMOHTrYOp988gm6dOkSsx6t461bt9oBQ9Y7ceIEevfujRYtWnglgLNnz2LHjh1499138c4779hpWtSXXHJJhCukuLjYdiQU9s8++wxFRUW2DveDgu8GLZnH9NFHH+HUqVPWTdKsWTNvLdV8/vnneP/99/HBBx9g3bp1+Pjjj607htv1t495b7zxBg4ePGj3l75wtoP7wu0cOXLEum6iYUdUWFhot802CCEaLwlZyBQpf9yxHwq1S7HEk75n1uU64oVC1Lx5c+sfjgXzW7dubQWJAhYNLegPP/wQmzdvtmXoj2aHQSGn6FHsotm5c6ftYNjZZGdnW3cMRZJ3AhRXCioHG9PT07Flyxa7bj/cJvNWrVplBXvgwIG2I+rWrZtd99tvvx1zu6y3YcMGux12Lm3atLFtplDHCh3kPrCT6NGjh5cjhGisJCTIFIBEcdEW7jMeKH4UPnYAtGr9cN5Z4bSmY0EBpLX7rW99CzfccAOuuOIKDB48GMOHD7cCTmvZD4WSYsjyV155JYYOHYprr73W5lOUKdLMo0XO9fXs2dO2wS+YtIxpPVP4GVnCOixPVw0Ty1LIo90wvNNg3p133mkHS6+++mor4ocPH8YXX3zhlQrDdVCQeedA610I0bhJ2Ic8YcIEawVHQ2GKHtDzwzqsS5GKl6ZNm1oRPXnyJMrKyrzcMLxlpzuCLoomTZp4udUw+oIWNAU7ur10S1DMKOos5+eyyy6LcGXQSqXgs2Pwuw6cZU4r2FnnFFS6WBjlkZWVZdvvh/Vp0dLqje6YuC8DBgyIEFiW5TxF3g/FmKLMDkEI0fhJSJAptPQH+y1CZzUz3w3olZSU2Dy/Rc06LEPBrg8UTgofLV0nnvS7UmwpkrSiY8HtMW3fvh2hUCgi/eEPf8Du3but0FMIHRTeaGubLhMKK/eFA41+uMwPxZnWNNcRK/SO62F72f5oQabwRm+brh/6lf1uC4o+vwd2KrSghRCNn4QEmZETFFW/mND6pNVLP6k/RT8Iwjqsy1QfKHoZGRlWlJyVTEGidcv8aCvUce7cOZv69etnXRCxEt0C0THOsaxtUlO+H4Z2c5tcZ7RYOyjU0R0Boc/YP9hHuG/cR4oxrWLC48hjwU6qtvhsIUTjISFBdi4HJ7ROmDlPP6k/xSrDulxHfaHbgXHGdAdQzOiuqMtCpIAyUdT69OkTM1HsahLOROE2aclHC66DVjRFOV4xdX5idkK0jvnADEU/VuSFEKJxkpAg8xaawkpfMoWWURPR7oDoxDKEg1xOpOsLrUf6dilGdHnQQqTvuDZRo+ixHl0IFMGvAraHrg1uk26JaCioHKBju2K5NGLBsuyQOOjHAT66bmgd1+SqEUI0PhISZAdFh24JJ7BOqB2cdqFv/GRZWs3JwAEuDqQxXphiRpGqDQoZhau8vLzKp+2HVjZFLpXQ2mbH4XzXFGA/9HvT7cK21yc6gncCtLp5h8CnF1m/JleNEKLxkdTVTJGlwNJSJpymO4L5TJx2AsxQr2TFmFDAKPR0WVCQ4rEwGbrGW/5NmzbZ38dgGByFkg9i8GEN3vqnGgoyI0PYCdDnvm3bNmvVr1271j7owfYwNrk+sA5dNByI5MBioncaQohgkhLzykVROIHgp3+a4uyPtEgW+k1p9cbrP2XUAn9siCFotIYpihRnPt3GOGKuK9XQcmWs8o033mi346JP6GbhICLvFuo7GEfLm50QXSEU53jdHUKIxkHSv4csvlr4sAndNX5XkRDi4kAOyEYE/ccczKPbgkkIcXEhQW5EUIzp8qB/OjpWWQjR+JHLIuAwbI4Dg4xr5ictY/4GhwRZiIsPWciNAFrG9B1zQI+/MCcxFuLiRBayEEIEBFnIQggRECTIQggRECTIQggRECTIQggRECTIQggRECTIQggRECTIQggRECTIQggRECTIQggRECTIQggRECTIQggRECTIQggRECTIQggRECTIQggRECTIQggRECTIQggRECTIQggRECTIQggRECTIQggRECTIQggRECTIQggRECTIQggRECTIQggRECTIQggRECTIQggREJp8afCmU8L+/fuxefNmHDlyBCNHjkTXrl29JXWTTF0/p0+fxkcffYRPP/0Uhw8ftnkdO3ZEr169cNVVV6Fly5Y2LxbJ1BVCiGRIiSCfPXsWn332GXbs2IGysjKb16FDh7hENZm6sdi3bx/ee+89HDp0yMuJ5JJLLsH111+P7t27eznVJFNXCCGSJSlBPnXqlBUwCiotSz91iWoydWvi6NGjWLNmjbW0SY8ePdC7d287vWfPnirB79atG0aMGIH27dvbeZJM3Zpw9Vq1aoXs7Gz7WRs8Dlu3bsWJEycitk+2bdt2QUfRtGlT20lcfvnlaN26tZcrhGisJOVDPnfunBUyCkmLFi2QkZFhxTQekqlbE5988kmVoF522WW46aabcOWVV9rEaeYRlmFZP8nUrQt2PhUVFd5czRw8eNCKcU04Ae7cubNNdJ+wDkX85MmTXikhRGMl6UE9ikL//v2Rm5trb+frsgL9JFM3FhR4R8+ePSP8vZxmnsNfliRTtzaaNWtmO5wDBw7YTqgmuIxlWJ7CGwsuu+KKK5CVlWXT4MGDrSVNwWddIUTjJilBbtu2LW699VYMGzYMnTp1QpMmTbwldZNM3Zrwr4PiFY0/L3p7ydSti3bt2uH48eN2sLImuIxl6nssWJ5tq03shRCNg4sq7I0+Z1qjhK6F8+fP22nCaQ7aEZaJ9k8nU7cunGjSnxzLZc88LuO6GdFRHyjibB9FXwjRuLmoBJl+aOdaoJ+3uLgYZ86csYnhdM73yzIs6yeZunXBAbe0tDTr6jh27JiXWw3zuIz+YRKPtUsRppuCg6IUfPqUhRCNm5TGIdNae+utt6xQ1DdSIpm6fjhIuG7dOhvhQDH1QwuUkQtDhw6N8BE7kqkbC66H1jbjlymg27dvR3p6uvUD+/n444/xxRdfWH86B/VKSkriirKga4Pr69OnT41+ZyFE4+Giu4o5wEULM5YflnmMe6b4xyKZunVBVwQ7Gooqt+NgdAQjMLi8rlC66CgL+uEp+Bs3bqw1OkMI0Ti4qASZ4rRy5UprcRJanN/73vdsYhwwrdzdu3fj7bfftmX9JFM3Hpw1SyvcHwLHOwIKPZfVBf3Q/iiLa665xraT1vyuXbs0sCdEI+eiEWSKGh955uPO9NnecMMNNoLDWZN0NTC1adPGltmyZYsVx2Tr1gdawVxHeXm53SaFlHHEtHQTjcGmxcxEC1lWshCNm4tGkCmUzvKkiNIHGw0H5JxfmmUphiSZuvWBVjbXT7cHXRfcLkWU640Vahcv9GlzKMAfGSKEaHxcNILMSIXKyko7TXGLNchFQaSFSiiKzspNpm59oWuCAkq3BxMtcop0MrAtdIloYE+Ixs1FcwU3b9686vcc6EuNZS3SRRDrtj6ZuvWFTyPSxcAHQdgJdOnSJe6ojVjQ0mZiZ+E6DCFE46TRCTLjdTn49uKLL9pQMIc/SoHuBP58ZjR79+61/ltCIXRxv8nUTQRaybRmnQsjXthZcNCR4XNMmzZtsseA6+JvbSTj9hBCfP00OkFmNEFpaam1Vnfu3Fnl++WTaozbpcgxlOz999/H3/72N1ueqaioyOa5H+Hh7xvzYQ2STN1E4PbYAXAdHNCLF1rutIbZaTDxGFDQBw4cmFR7hBDBoNE9GMKYWyZCK5Xl+KQaoWDxCTummny8FF0+qDFo0KAIn2sydYUQIhU0OlXp27evfXSZ/lL+NKYTY0KRvPrqq+2vxzE+17+M4s3y3/nOd+yvpEULajJ1hRAiFaTUQhZCCJE4MvWEECIgSJCFECIgSJCFECIgSJCFECIgSJCFECIgSJCFECIgSJCFECIgSJCFECIgSJCFECIgSJCFECIgfGWCXH4y/NOVQgghYtNggrzn6O4IEX7r81UR88WHir0pIYQQpMEEufzkAbx/4H1vLhKK856je7w5IYQQpMEEOfuSbPsZbQkfP3vcWsrDug7zcoQQQpAG/flNii9p27ytFeH01ukReULUBl+ZVVJSYqczMzPtq69E3Zw6dQqbN2/G5ZdfHshjFvT2fZ2kVJDpiuhqRNdZx6nik08+sW8Tiebmm2+2X2rQ+fDghyip3OnNXUjHlh1x86Wj0LJpS1SeqcSmik3Yf2I/zn95Hm2at0FWWhauTLvSK107pcdK7V3J0bNHwK+2hVnn0K5DkdE2wytRDd1GGw5uwNWdrkbfDn293DAHTx20LqcjZ46YdbTAgEsGoF9aP29pGC4/dvYovtX9JjRrktr3+VGMd+/ebd/QotdThdmzZ499ow5fpMCX5dZEMoJ39uxZbN261b6J3Q/fllPXduNFglwzSbksaO3y4uenc0VsNfMNMWDH1zqNHTsWeXl5Ng0dOtSKNMW6IeArpZYvX56S9bdo2hytmrW6IDX1RKxd8/ZWjA+fPoy/7Xsbnx8vQ8tmLZDWsgNOnjuJjRUbsbMWQXdQXN898I4V47bN29nO8Uvzd/pc5CupKPpvm+1QUM+cv/B1VcfOHsM75WvR3LT7pktvwqVtumPLoS347PhnXgmgzLRx/8l9GHjJ1SkXY/LFF1/YN4HX552D30T4klv/y35TBd+SM3z48KrE90Dy1Wl8U3p9aKj2XawkJcjlJ/dbAV5lLGNyW8b37GdNokwLOnqgj+X+XPpnK+b1oV+/fvZNy59//rmXE1woWndcNi4i3dLjVrQ2otzcWJ/9POuXx+3E2RO4tG0PjO11G77bMxc56TlW8LZXbrdCWROlx0vx8ZFdZp2t7brH9hqLUcbqvvPyO9G7fW+vFLC5YjNe/+wv1gJv0sTLjILfxWkj1LzT6da6m7GOs9G8SXMjwPvt8rPnz2Lb4a3oZazurq3je2eiSB6+iPe6665LiZVaX6644gr76jL3UmHRMCQlyOnmYg37hY/VKcouDC46HI7lWL++gtzY2X30Y7PfJ6zg0ZKlAB41t//NjFWa2SGzyursbqxTujRoKX9x8gubFw1dG7sqS3DeWMPZlwxEp5bV7wNsYv78FizLXmKW53TLQVqL2K4AlmlmBLh9i/Z2ntY8Ow/HziM7ce7Lc7iq41VejrjYYSdAK5lvOhcNR7PZBm+6XtBFQYutT/s+5lb7kE28peU8fY07K3fggCeyFG23nPQ2ZdqZW2qug+UIyzDF4vDhw9YSps/J3cLSD8UBH/qgov1Q7777Lt58882qN1Tz9qtjx47e0rA74o033sDatWuryvAV/3y9P2H9v/3tb7Yc/Xb+5WfOnLHLmFzd5s2b18sXRiuYfmIK6ODO11r3AgWOPt3T588go11GlRg2MWbs3mN7cezMUTsQemmbS22+n8NnDmP74e1o2aylscYHWp9vTVDgr+hwhRVZbu/UuVPoYSzyTq2qRbzidAU+P/E5erbpYdvG76nkSIntGNoYC3yzaXt2p4Ho3KqzVyN++L1t2LDBuoJKS0ttOnfunP2OCG+JeUx54fNYf/bZZ9Yq69KlywUvl6W/c8uWLXZ59BvKeZtcVlZWVc+V/fjjj2Nul7ht79271y6P3i7PBS6jP5U+ULaNrjSKFZdxm27dNbWZRLeNuG2znf42sSz9xtw/boPnPOtx/Zs2bbLnJRO3uW/fPruM7N+/357zrOvaxW269tYE377OOs2aNbvgmDKftGzZ0raVnxRpP66NhMc7Fe3jeAL3lWVqKsfjx++kffv29jveuXNnxDZ5jTYGEhZk+iudX5NWWW2izAvafRInyDuiRLs+grx+/Xr7OXjwYHvyECeWPKlvu+02DBkyxJ7c9DX7RXnHjh1WXG+66Sb7Sv+ePXva1//zZKSwchnfMs0TYdiwYbacE+M1a9bYN15z/a4uRcadaPHwsbGOOfjWxQjaVR37W9Hl36fHP8VRI7x0JfRs29Pm0a+888gO6yboZMrHEuQDpw7Y9VHEz+Mc1uwvsqLJ40vB5XFt2iRSGFwHEEuQmzVtZl0glacrkdYyza6HfmcO7H10+CO0MR1DIgO3PJ48zt27d7cDRHx7OAfsKM5HjhyxAsCLjMf66FFzt2C+12uvvRY9evSIKWx1iYf7PvnJgSoKKc8Xt11+n27AkG3bvn27fas5BxIvvfRSuw4mfrfcPs9DtpPfN9tPl5kTY5ZjW/v06WPrskPh+Rar3RxsZXkud6JCQaHfnMvc9ridTz/91O4/hY/bp5HQrVs3227uB48Tfe3cL56LFB52NBQ8boPC5Y41287rqDaBqumYurawzax/6NAhmxddhgOxzOOxSUX7KNYsO2DAABtpw3K8vim6PHauQ+C2uT6W5fnjvkN2XDyu7pgGnYRbmN66qxHYY/ai3n10N4Z1vd5e+M59EctdEY0T43jgl8VBtlAoZBN7yYEDjTVoLjIH83ii+PMp4llZWfYL5AVIsrOzbb6DJxBPep48tcH6vND4RTtYl+uPFwrr3qN7rQhf3r53lVDys29a2FXxydFP8OreV/HGZ2/gr2V/tVZzbXDQ7rwRWIrmNiOYHYww05o99+VZ22nSGq8PdGVc1+U660L5q2kDfcdDuwy1lj23QVfFuwfexUt7XjLpRbz1+VvWpVIbvIh4sfE40xfqoLBQxPj9UpQaAgrA6dOn7UXpcIJGXNvYabs7HQoC20nrjhe1g4LFen5B4zlBYXDiymUUdn8ZP9w2xcG/XooG89lWJuKOB/MTgfvjP9YURLa/vseZx4edFS1iih33i9dA9HfGaa6/U6fqzr026mofPxntER1pwzqsy++MbfPD88v/HbKd/A7ZkTUGEhZkWrkc7KlJlCnCqYQ9qT/KYuTIkVi9erV1LzjcBe/vtQlvY9wtsIPTq1atqhJ4nnDRZaKhyNM6pnXO3jgRaM0esVEQF7ofGJrGY8hlFFmWYzhajzY97PLaXBGEFvWNXW+0g3rf6fldXNNpkBV+3rW4u5N4Ydu+l/E93NXn7+1nl1Zd8FHlR9a/ze+bURaDOw82aYh1cWw4+KFXMza8ICiKsS7WWAKVSmjtUUxovcUSI9c2CoIfCizb5b+YOe+E18FzgoYALeV4cJYdzzdC646iQSGhGLs2crtst7sDrC/+DojE2p+a4P7Qpcf0/vvv23P/mmuuqepkaupUeJ3G24HU1T6um/sfK9KGdaOFlnWjzy/3XfEYNwYSFmQKLm9bo0WZPsevAoouXRK0iimOznqlsDqRdWndunVerTAU8RdeeMFeAE7g47FyeVKOGjXKir6z1nkLXh8+PVaKc8ZKpsAxIiIa+o85MHpXn7sw4fIJRlSvwYlzJ4ywNkWH5h28UpGErewm1iqmj9hBVwTD6ThgSMs2GbYd3oZWZl292vayFnP31t1sZ8HE6YrTh2q1knlB0Pr5OqCIUEwoFvy+KDJ+8WTbeP64ZS6x443uoGMJJC023k7zXGQ9+jujLbdoKCi0/rhtCjDXSTGhUFPYWJ/5FLeaLO2GhBaoP+ytf//+3pIwrlNhG9lW7gf3J1pkk8F1WN8kEhJkijHD1xiu5hdlRkyk2jKuDfacvECIs14prE5k/YnWNcvTX8kLh/N0XSTCDTfcYNd58803W7H3W+m1QWGkNUlx7d66WjhrgwN2fDiD4t2ldeyTvUOLDjbW+ez5Mzj75YVC0NSIdV3WdW0cOHkAZSfK0L/jAJw3f7TeWzdv4y2FnaYrJta2Hc76SSUUKueaigeKCsXFiSf9k4Rt43p4PvhFyCX/bXVNsHNnWRoJtLY5cFmbVcZtuttz567g/lDQ2Akwv6Y7iqDAOwq2kVYq20vitY7jgdfzN42ErhCGu4VH349ViXJNA3KxcGX9fuV2CTxKzROBJ4SDromDBw/GdUvmh+VZr77QD80HVOpydTgOGSuSkSm0NGOJKwX7jM9fzHkOzp0+d8oO8nEgNBYdW3REh5Zpxgo+Yv3PDroVuA66QCjaicDBvy2HNlu3Ca1vxiPzgRF/O0+ePWHD4miN14S7dYzlluDFXB/fYzQ89n6L1FlrNUHx5F2Oq1db2+oL18UYeVKbINM44GAXXQO89Xb7zvo8p5lf0+16UHAGEe9Q6S7kXas7lqmA66/J/8tO7GJ8cCghQeYFzocO/KIcbxwxfc8kurzLjxeeBLyl9PuMOThE3nvvvQiBpFXsnrhzXyBHYx0Ml4n2CTuLmyeagycGw30c3AZH51kuHkut4lSFtSTbtWiPNs0u7P35uDKP5YpPV+DNsjfx2t7X7AMcjIDo37H6lnHjwY12QK1of5GNGaZA9k/rbwcEN1ZssA9+LP90OTZVbLR+5ay0q2oVy9rYdWQXThlRd9unpd61VVfrl+Yypn0n91e5R2qCFyo7MFqmfncBxZi+XRc5UF/crT8jABz+AVxCYdy1a5c3Fx6k4nb5ndEqZdt4DrFt/D4dLMd6frGPBcv4xdcJe23ixO1yf9kOv/A6kWO+s5prg+eec3181bh94P7WZM0n0z52nHQzffTRR/Z4OHj+cECRdy51HZ/GRsJhb7wFpj8xPGBUszUSDS09WsiMsPDHJTO/Jhjuw1A1xhZSEJk4zVtEv9uBFxi/JMaKMjzNlaX1xXL00/GEZ6Kvzy1nVAYvHl54DNdhOSbeYtMlwTLsqSkaFG9Xl3GWHMWlCyMeGAZI9wP3n77iaBgVwacfGd1w4uxxtGjWEplpV2JYl2E2xtix78Q+HDx90Fq9XA8H7jhNoWQ+t0ELlnk3pg+3YhlNbWFvjiNnKrHBiDrF2P9EHqdp7TM2mW3p1a6XHUCMDq2Lhj5HXsDsHF2sLwWQEQnRA2rsIPm98aKszdXBdXIgjGLq4lQZCcDwMVef065T5nLGD7Oe3y9KnynPAcbQuvWwHL9figLheUhhiW4TY13Zqbh6LBPP7z5wHdxPClnnzuGYbubxXKOFzPBAttPhD3tzQkTBo3HBDilWnK+/Po8T83n+c39jwWPGNvH8jx4cj4XbPjsRfofR31Wy7WMbeF3648d5fDkm4K/LPN7lcv3+4858WtNcn798UEn6x4U4es8wt3hEmULEH9Eh7gfraWXzpzjr4/IQQgQDCp5+KCh1JOSy8ON3X9QGlzsxZoyyc1lIjIVovDiXXiLuJnEhKfv5TVrKDHtjpIUfCjF/3MY92UUhZoQG8yjEEmMhGifOOqZbIZ5IFFE3DfID9RRn98tk0YJLQZYIC9F4cULMgVMOqkuMU0eDvjFECCFE/CTtQxZCCJEaJMhCCBEQJMhCCBEQJMhCCBEQJMhCCBEQJMhCCBEQJMhCCBEQJMhCCBEQJMhCCBEQJMhCCBEQJMhCCBEQJMhCCBEQJMhCCBEIgP8PYzO+2+R2x4IAAAAASUVORK5CYII=;" vertex="1" parent="1">
          <mxGeometry x="509" y="504" width="162.71" height="133" as="geometry" />
        </mxCell>
        <mxCell id="1MrnN2OK7CgLg50W9nsM-23" value="Python" style="rounded=1;whiteSpace=wrap;html=1;" vertex="1" parent="1">
          <mxGeometry x="509" y="430" width="120" height="60" as="geometry" />
        </mxCell>
        <mxCell id="1MrnN2OK7CgLg50W9nsM-26" value="用c比較好寫" style="text;html=1;align=center;verticalAlign=middle;whiteSpace=wrap;rounded=0;fillColor=#dae8fc;strokeColor=#6c8ebf;" vertex="1" parent="1">
          <mxGeometry x="593" y="240" width="116" height="30" as="geometry" />
        </mxCell>
      </root>
    </mxGraphModel>
  </diagram>
</mxfile>
